PathFileType	4	(X/Y/Z)	C:\Users\Basilio\Documents\Thesis Gigler\squatting_fais\c3dfiles\054\SJ_pre4\markers_experimental.trc
DataRate	CameraRate	NumFrames	NumMarkers	Units	OrigDataRate	OrigDataStartFrame	OrigNumFrames
200.000000	200.000000	4	61	mm	200.000000	197	1582
Frame#	Time	FHD			LBHD			RBHD			C7			T10			CLAV			LSHO			LUUPA			LMUPA			LDUPA			LLEP			LMEP			LRAD			LUL			LRFIN			RSHO			RUPA1			RMUPA			RDUPA			RLEP			RMEP			RRAD			RUL			RUFIN			LASI			RASI			USACR			LSACR			RSACR			LTHI1			LTHI2			LTHI3			LTHI4			LLFC			LMFC			LTIB1			LTIB2			LTIB3			LTIB4			LLMAL			LMMAL			LHEE			LMT1			LMT2			LMT5			RTHI			RTHI2			RTHI3			RTHI4			RLFC			RMFC			RTIB1			RTIB2			RTIB3			RTIB4			RLMAL			RMMAL			RHEE			RMT1			RMT2			RMT5			
		X1	Y1	Z1	X2	Y2	Z2	X3	Y3	Z3	X4	Y4	Z4	X5	Y5	Z5	X6	Y6	Z6	X7	Y7	Z7	X8	Y8	Z8	X9	Y9	Z9	X10	Y10	Z10	X11	Y11	Z11	X12	Y12	Z12	X13	Y13	Z13	X14	Y14	Z14	X15	Y15	Z15	X16	Y16	Z16	X17	Y17	Z17	X18	Y18	Z18	X19	Y19	Z19	X20	Y20	Z20	X21	Y21	Z21	X22	Y22	Z22	X23	Y23	Z23	X24	Y24	Z24	X25	Y25	Z25	X26	Y26	Z26	X27	Y27	Z27	X28	Y28	Z28	X29	Y29	Z29	X30	Y30	Z30	X31	Y31	Z31	X32	Y32	Z32	X33	Y33	Z33	X34	Y34	Z34	X35	Y35	Z35	X36	Y36	Z36	X37	Y37	Z37	X38	Y38	Z38	X39	Y39	Z39	X40	Y40	Z40	X41	Y41	Z41	X42	Y42	Z42	X43	Y43	Z43	X44	Y44	Z44	X45	Y45	Z45	X46	Y46	Z46	X47	Y47	Z47	X48	Y48	Z48	X49	Y49	Z49	X50	Y50	Z50	X51	Y51	Z51	X52	Y52	Z52	X53	Y53	Z53	X54	Y54	Z54	X55	Y55	Z55	X56	Y56	Z56	X57	Y57	Z57	X58	Y58	Z58	X59	Y59	Z59	X60	Y60	Z60	X61	Y61	Z61	

198	0.985	-171.8917236328125	1753.823486328125	-885.617858886719	-314.5891113281251	1667.668212890625	-963.5300903320315	-337.6211853027344	1661.759765625	-825.6019287109377	-350.4731445312501	1519.525024414063	-883.4696044921877	-397.3281555175782	1183.289184570313	-893.8538208007815	-209.8786773681641	1453.197265625	-885.122985839844	-265.3049621582032	1515.259399414063	-1043.419921875	-354.4591369628907	1390.076171875	-1221.558349609375	-315.9084777832032	1355.627319335938	-1228.889892578125	-362.0397033691407	1336.621337890625	-1265.403930664063	-353.2457275390626	1273.027221679688	-1287.927856445313	-427.6101379394532	1252.810302734375	-1242.480590820313	-320.8644714355469	1062.08203125	-1131.313720703125	-272.7748718261719	1029.142333984375	-1181.96240234375	-267.3720397949219	1072.342163085938	-1091.450805664063	-262.7726745605469	1509.632690429688	-721.4412231445314	-364.3278503417969	1363.245361328125	-555.1592407226564	-337.6298522949219	1322.219482421875	-552.0541992187501	-388.1400146484376	1305.219482421875	-522.8930664062501	-396.9533996582032	1255.789428710938	-509.8913574218751	-459.5430603027345	1249.104858398438	-569.1120605468751	-357.5066833496094	1044.262451171875	-682.6711425781251	-292.9726257324219	1062.324829101563	-700.0074462890626	-315.4214172363282	1016.247436523438	-619.5913696289064	-194.1612854003907	1011.868408203125	-1018.252075195313	-200.7082214355469	1005.873962402344	-757.5834960937501	-392.224822998047	1089.248046875	-893.5736083984377	-394.3358459472657	1057.873779296875	-922.520446777344	-394.9398193359376	1055.92626953125	-866.421569824219	-319.0068664550782	801.7454833984377	-1127.544311523438	-293.0893554687501	722.3378906250001	-1144.860595703125	-246.0588684082032	723.6253662109376	-1146.40966796875	-323.5833435058594	669.4658813476564	-1133.586303710938	-332.0166320800782	513.4691772460939	-1140.65283203125	-266.7727966308594	479.6817321777345	-1025.6396484375	-292.0021667480469	343.9813232421876	-1145.224487304688	-360.0577392578126	312.3697814941407	-1193.850463867188	-317.0173950195313	303.3533935546876	-1182.658447265625	-316.8232116699219	220.5092163085938	-1166.482421875	-392.5801696777345	89.99368286132814	-1216.364990234375	-334.4003601074219	98.71070861816409	-1136.960083007813	-441.5795898437501	52.08919143676759	-1149.2626953125	-224.2834472656251	54.82462692260744	-1196.271240234375	-231.8177642822266	58.0316734313965	-1245.576293945313	-294.1019287109376	36.24814224243165	-1283.490966796875	-345.3900756835938	729.0891723632814	-686.3211669921876	-317.6627807617188	670.2780151367189	-672.9548339843751	-284.9360351562501	667.1777343750001	-669.4063110351564	-352.3215942382813	595.6581420898439	-690.0787963867189	-374.3630371093751	503.2601623535157	-687.4465942382814	-285.9754638671876	481.8241271972657	-792.7713012695315	-325.5366516113282	399.6280822753907	-655.4544677734376	-404.6589965820314	330.6370849609376	-636.5545654296876	-359.0076293945313	323.9632568359376	-626.3304443359376	-337.4683837890626	271.1806640625001	-633.5115966796876	-397.1023864746095	92.14441680908205	-598.8895874023439	-333.2530822753907	100.2350158691407	-669.4863281250001	-435.9629516601564	48.748104095459	-668.0069580078126	-218.9072570800782	53.26890563964845	-603.3961791992189	-233.2024993896485	55.686336517334	-557.7619018554689	-294.2292175292969	32.43545532226563	-527.1332397460939	
199	0.99	-171.8339385986328	1753.850341796875	-885.655212402344	-314.5264892578126	1667.687744140625	-963.5671997070315	-337.5855102539063	1661.777099609375	-825.5692138671877	-350.3200683593751	1519.588012695313	-883.4918212890627	-397.3819274902345	1183.331176757813	-893.8876953125002	-209.8183593750001	1453.203125	-885.1230468750002	-265.2905578613282	1515.269409179688	-1043.44482421875	-354.4435119628907	1390.147216796875	-1221.621826171875	-315.9541320800782	1355.866577148438	-1228.906372070313	-362.0719909667969	1336.513549804688	-1265.401611328125	-353.2409057617188	1273.0380859375	-1287.97900390625	-427.6181640625001	1252.822631835938	-1242.528076171875	-320.9187316894532	1062.079467773438	-1131.321899414063	-272.7927551269532	1029.184814453125	-1181.983764648438	-267.3339538574219	1072.3388671875	-1091.447998046875	-262.6405639648438	1509.691528320313	-721.5163574218751	-364.2307128906251	1363.3623046875	-555.1677856445314	-337.6214599609376	1322.285888671875	-552.0318603515626	-388.1255798339845	1305.279907226563	-522.8836669921876	-396.9792480468751	1255.869995117188	-509.8385009765626	-459.5147094726564	1249.206420898438	-569.0959472656251	-357.5537414550782	1044.358642578125	-682.6417846679689	-293.0494384765626	1062.405639648438	-699.9974975585939	-315.4445190429688	1016.315185546875	-619.5696411132814	-194.1779174804688	1011.821594238281	-1018.177001953125	-200.7832489013672	1005.906433105469	-757.5786132812501	-392.2978515625001	1089.25732421875	-893.5667114257815	-394.3449096679689	1057.848754882813	-922.5394287109377	-394.9815063476564	1055.92529296875	-866.428161621094	-319.1171875000001	801.743347167969	-1127.533203125	-293.1263122558594	722.2974853515626	-1144.83935546875	-246.0659484863282	723.6256713867189	-1146.394897460938	-323.7320556640626	669.5075683593751	-1133.57666015625	-332.0359191894532	513.4728393554689	-1140.664672851563	-266.7789001464844	479.6830444335939	-1025.641967773438	-292.0292358398438	343.9619445800782	-1145.24853515625	-360.0665588378907	312.3663635253907	-1193.856323242188	-317.0211181640626	303.3362426757813	-1182.682250976563	-316.8535461425782	220.5159606933594	-1166.530151367188	-392.5446777343751	90.00177001953126	-1216.366821289063	-334.4421691894532	98.70180511474612	-1136.982055664063	-441.5242309570314	52.06116867065431	-1149.23583984375	-224.2950286865235	54.85681533813478	-1196.27099609375	-231.8161621093751	58.03275299072267	-1245.579833984375	-294.0609130859376	36.26585006713868	-1283.491821289063	-345.3903198242188	729.1066284179689	-686.2978515625001	-317.6015319824219	670.2433471679689	-672.9782714843751	-284.9448242187501	667.1305541992189	-669.4034423828126	-352.3259277343751	595.6712036132814	-690.0473632812501	-374.3567199707032	503.262420654297	-687.4132690429689	-286.0270690917969	481.7717895507814	-792.7930908203127	-325.5083312988282	399.6602172851564	-655.4821777343751	-404.6686401367189	330.6479797363282	-636.4862060546876	-358.9992980957032	323.9240722656251	-626.3016357421876	-337.4539794921876	271.1792907714844	-633.5083618164064	-397.0899047851564	92.14302062988283	-598.9205932617189	-333.2960205078126	100.2575149536133	-669.4920654296876	-435.9482421875001	48.76668167114259	-668.0409545898439	-218.9565887451172	53.22893142700197	-603.3874511718751	-233.2218017578126	55.66014862060548	-557.7448730468751	-294.2216796875001	32.46483993530274	-527.1045532226564	
200	0.995	-171.8003540039063	1753.812622070313	-885.6630859375002	-314.4718017578126	1667.716064453125	-963.574157714844	-337.5206909179688	1661.820434570313	-825.5775146484377	-350.2692260742188	1519.630981445313	-883.5194091796877	-397.3609619140626	1183.361328125	-893.892761230469	-209.8017120361329	1453.158203125	-885.120300292969	-265.1377258300782	1515.2802734375	-1043.474975585938	-354.2595214843751	1390.1591796875	-1221.642822265625	-315.9911804199219	1355.88818359375	-1228.950927734375	-361.9059448242188	1336.561157226563	-1265.423461914063	-353.2378234863282	1273.064453125	-1288.00146484375	-427.5407104492189	1252.87548828125	-1242.560668945313	-320.9304199218751	1062.082763671875	-1131.330688476563	-272.8388671875001	1029.17724609375	-1182.00048828125	-267.3506774902344	1072.39111328125	-1091.471069335938	-262.6322021484376	1509.724853515625	-721.4964599609376	-364.2350158691407	1363.441284179688	-555.1723022460939	-337.5280151367188	1322.364501953125	-552.1058959960939	-388.1152648925782	1305.363403320313	-522.9293212890626	-396.945281982422	1255.967895507813	-509.8625488281251	-459.5879516601564	1249.305419921875	-569.0849609375001	-357.5412292480469	1044.368041992188	-682.6404418945314	-293.0480651855469	1062.43603515625	-700.0372924804689	-315.4457702636719	1016.347961425781	-619.5926513671876	-194.2846221923829	1011.841247558594	-1018.213928222656	-200.804916381836	1005.939270019531	-757.5620117187501	-392.339080810547	1089.276489257813	-893.6145629882815	-394.4901123046876	1057.909912109375	-922.518249511719	-395.0207519531251	1055.939208984375	-866.445739746094	-319.0859069824219	801.7434082031252	-1127.515991210938	-293.1511840820313	722.3464355468751	-1144.858276367188	-246.0962982177735	723.6349487304689	-1146.420166015625	-323.6643981933594	669.4913940429689	-1133.592651367188	-332.0515441894532	513.4520263671876	-1140.661010742188	-266.7814941406251	479.6813354492189	-1025.650024414063	-292.0274047851563	343.9591064453126	-1145.255126953125	-360.2278137207032	312.3450622558594	-1193.841552734375	-317.0298461914063	303.3675231933594	-1182.677978515625	-316.8529052734376	220.5085144042969	-1166.518676757813	-392.4780273437501	89.93716430664064	-1216.403564453125	-334.4359130859376	98.70174407958987	-1136.9951171875	-441.518035888672	52.07724380493165	-1149.263916015625	-224.290756225586	54.85892868041994	-1196.26318359375	-231.822738647461	58.0392189025879	-1245.57568359375	-294.0158996582032	36.26138305664063	-1283.554321289063	-345.4134826660157	729.1153564453126	-686.2528076171876	-317.6132812500001	670.2591552734376	-672.9512939453126	-284.9416198730469	667.1444091796876	-669.3647460937501	-352.3211059570313	595.6440429687501	-690.0145263671876	-374.3433227539063	503.2665100097657	-687.3788452148439	-285.9945983886719	481.8483276367189	-792.781188964844	-325.5395202636719	399.6275939941407	-655.4285278320314	-404.678436279297	330.6480712890626	-636.4926147460939	-359.0452880859376	323.9341430664063	-626.2485961914064	-337.4554443359376	271.1890869140626	-633.4938354492189	-397.0960388183595	92.16038513183595	-598.8873901367189	-333.2813110351563	100.2784118652344	-669.5361328125001	-435.9627075195314	48.76266860961915	-668.0551757812501	-218.911117553711	53.24341201782228	-603.4066162109376	-233.1939544677735	55.66945648193361	-557.7460937500001	-294.2175903320313	32.44164657592774	-527.1309204101564	
201	1	-171.7176361083985	1753.857421875	-885.684020996094	-314.4698791503907	1667.7177734375	-963.574157714844	-337.5236511230469	1661.819458007813	-825.5781860351565	-350.2015380859376	1519.650268554688	-883.5211181640627	-397.3835754394532	1183.432861328125	-893.8997192382815	-209.4715270996094	1453.220336914063	-885.184753417969	-265.1557617187501	1515.281005859375	-1043.466796875	-354.2456054687501	1390.173706054688	-1221.646728515625	-316.5617980957032	1355.875610351563	-1228.786010742188	-361.7689208984376	1336.569580078125	-1265.464599609375	-353.2172241210938	1273.07421875	-1287.981567382813	-427.5528259277345	1252.927612304688	-1242.586547851563	-320.9255371093751	1062.138061523438	-1131.321899414063	-272.8447875976563	1029.1953125	-1181.999877929688	-267.4023742675782	1072.406127929688	-1091.4306640625	-262.5219726562501	1509.7392578125	-721.5246582031251	-364.2075805664063	1363.489624023438	-555.1499633789064	-337.5897216796876	1322.376586914063	-552.0567626953126	-388.0727539062501	1305.464965820313	-522.9146118164064	-396.9155273437501	1256.073364257813	-509.860076904297	-459.6044311523439	1249.386840820313	-569.0703735351564	-357.6670227050782	1044.470336914063	-682.6383666992189	-293.1016845703126	1062.43505859375	-700.0451049804689	-315.4675598144532	1016.460205078125	-619.5587158203126	-194.3160095214844	1011.774719238281	-1018.219177246094	-200.8800201416016	1005.971374511719	-757.6248168945314	-392.396697998047	1089.305786132813	-893.607604980469	-394.5261230468751	1057.934814453125	-922.4870605468752	-395.0706481933595	1055.95263671875	-866.4814453125002	-319.2224121093751	801.7408447265627	-1127.48779296875	-293.2150268554688	722.3253784179689	-1144.846801757813	-246.1304626464844	723.6094360351564	-1146.383911132813	-323.7913208007813	669.5018920898439	-1133.566162109375	-332.1345825195313	513.4337768554689	-1140.668701171875	-266.8380432128907	479.657440185547	-1025.686645507813	-292.0226745605469	344.0262756347657	-1145.262084960938	-360.0826110839844	312.3671264648438	-1193.890380859375	-317.0559082031251	303.3365173339844	-1182.65966796875	-316.8634643554688	220.5045623779297	-1166.537231445313	-392.5443420410157	89.99741363525392	-1216.374145507813	-334.4035339355469	98.69354248046878	-1137.013427734375	-441.5588989257814	52.06599426269533	-1149.270141601563	-224.2980957031251	54.87105178833009	-1196.278076171875	-231.8189849853516	58.034236907959	-1245.578735351563	-294.1032104492188	36.23265457153321	-1283.510498046875	-345.4739990234376	729.0715942382814	-686.2507324218751	-317.6127319335938	670.2409057617189	-672.9417114257814	-284.9631958007813	667.1491699218751	-669.3399047851564	-352.3404235839844	595.6785278320314	-689.9936523437501	-374.3763427734376	503.2680664062501	-687.3776245117189	-285.9540100097657	481.8963623046876	-792.7355957031252	-325.5008544921876	399.628387451172	-655.3757324218751	-404.6641235351564	330.6359558105469	-636.4865112304689	-359.0133666992188	323.9214477539063	-626.2720947265626	-337.4500427246094	271.1777038574219	-633.4978027343751	-397.0829467773439	92.16567993164064	-598.9141235351564	-333.2394104003907	100.2765655517578	-669.4797973632814	-435.9454040527345	48.76927566528322	-668.0380859375001	-218.9739379882813	53.20662689208986	-603.3833618164064	-233.2060089111329	55.66596984863283	-557.7590942382814	-294.2198791503907	32.44195175170899	-527.1390380859376	
